<svg xmlns="http://www.w3.org/2000/svg" viewBox="0 0 128 128">
  <defs>
    <linearGradient id="greenGrad" x1="0%" y1="0%" x2="100%" y2="100%">
      <stop offset="0%" style="stop-color:#41CD52;stop-opacity:1" />
      <stop offset="100%" style="stop-color:#257A30;stop-opacity:1" />
    </linearGradient>
    <filter id="shadow" x="-20%" y="-20%" width="140%" height="140%">
      <feGaussianBlur in="SourceAlpha" stdDeviation="3"/>
      <feOffset dx="2" dy="2" result="offsetblur"/>
      <feComponentTransfer>
        <feFuncA type="linear" slope="0.3"/>
      </feComponentTransfer>
      <feMerge>
        <feMergeNode/>
        <feMergeNode in="SourceGraphic"/>
      </feMerge>
    </filter>
  </defs>

  <!-- Background Shape -->
  <rect x="14" y="14" width="100" height="100" rx="22" fill="url(#greenGrad)" filter="url(#shadow)" />

  <!-- Stylized Q -->
  <path d="M64 30 C46.3 30 32 44.3 32 62 C32 79.7 46.3 94 64 94 C76.4 94 87.1 86.9 92.3 76.5 L101.5 85.7 L107.2 80 L97.5 70.3 C98.5 67.7 99 64.9 99 62 C99 44.3 84.7 30 67 30 H64 Z M64 42 C75 42 84 51 84 62 C84 73 75 82 64 82 C53 82 44 73 44 62 C44 51 53 42 64 42 Z" fill="white"/>

  <!-- Code/Plus Symbol Overlay -->
  <!-- Let's add a "Plus" badge in the bottom right corner or just code brackets inside -->
  <!-- Code Brackets inside the Q -->
  <path d="M56 56 L50 62 L56 68 M72 56 L78 62 L72 68 M60 70 L68 54" stroke="white" stroke-width="5" stroke-linecap="round" stroke-linejoin="round" fill="none"/>

</svg>