<svg width="128" height="128" viewBox="0 0 128 128" xmlns="http://www.w3.org/2000/svg">
  <defs>
    <linearGradient id="qtGreen" x1="0%" y1="0%" x2="100%" y2="100%">
      <stop offset="0%" style="stop-color:#41CD52;stop-opacity:1" />
      <stop offset="100%" style="stop-color:#2E8B36;stop-opacity:1" />
    </linearGradient>
    <filter id="dropShadow" x="-20%" y="-20%" width="140%" height="140%">
      <feDropShadow dx="0" dy="2" stdDeviation="3" flood-opacity="0.3"/>
    </filter>
  </defs>

  <!-- Background: Rounded Square with Qt Green Gradient -->
  <rect x="4" y="4" width="120" height="120" rx="28" fill="url(#qtGreen)" filter="url(#dropShadow)" />

  <!-- The "Q" Shape -->
  <path d="M64 24 C41.9 24 24 41.9 24 64 C24 86.1 41.9 104 64 104 C72.8 104 81 101.2 87.8 96.4 L97.2 105.8 C99.1 107.7 102.3 107.7 104.2 105.8 C106.1 103.9 106.1 100.7 104.2 98.8 L94.8 89.4 C99.6 82.6 104 73.8 104 64 C104 41.9 86.1 24 64 24 Z M64 38 C78.4 38 90 49.6 90 64 C90 78.4 78.4 90 64 90 C49.6 90 38 78.4 38 64 C38 49.6 49.6 38 64 38 Z" fill="white"/>

  <!-- The "Any" Symbol (Asterisk) inside the Q -->
  <!-- Represents the wildcard '*' (Any) -->
  <g transform="translate(64, 64)">
    <circle cx="0" cy="0" r="14" fill="#41CD52" opacity="0.1"/>
    <line x1="0" y1="-14" x2="0" y2="14" stroke="#41CD52" stroke-width="5" stroke-linecap="round" />
    <line x1="-12.1" y1="-7" x2="12.1" y2="7" stroke="#41CD52" stroke-width="5" stroke-linecap="round" />
    <line x1="-12.1" y1="7" x2="12.1" y2="-7" stroke="#41CD52" stroke-width="5" stroke-linecap="round" />
  </g>
</svg>